<svg width="18" height="18" viewBox="0 0 18 18" fill="none" xmlns="http://www.w3.org/2000/svg">
<path d="M17.7894 3.92047L14.0793 0.210428C13.7988 -0.0698735 13.345 -0.0700845 13.0644 0.209935L1.38373 11.867C1.28965 11.9608 1.22334 12.079 1.19248 12.2083L0.0196264 17.1151C-0.0383112 17.3576 0.0340053 17.6132 0.210385 17.7896C0.34658 17.9258 0.52992 18 0.718077 18C0.773835 18 0.829874 17.9933 0.884894 17.9802L5.79177 16.8073C5.92104 16.7765 6.03927 16.7104 6.1331 16.6161L17.7899 4.93536C18.0699 4.65485 18.0697 4.20053 17.7894 3.92047ZM5.26038 15.4578L1.68843 16.3116L2.54199 12.7397L13.5714 1.73322L16.2668 4.42866L5.26038 15.4578Z" fill="#5A5A5A"/>
<path d="M11.3278 2.93927L10.3125 3.95459L14.0461 7.68822L15.0615 6.6729L11.3278 2.93927Z" fill="#5A5A5A"/>
<path d="M12.1764 4.8061L3.20117 13.7814L4.21649 14.7967L13.1918 5.82141L12.1764 4.8061Z" fill="#5A5A5A"/>
<path d="M2.37469 11.9153L1.35938 12.9306L5.06931 16.6405L6.08463 15.6252L2.37469 11.9153Z" fill="#5A5A5A"/>
</svg>
